/* XPM */
static char *open_door[] = {
"40 40 4 1",
/* colors */
"B c #8B4513", // Marron pour le bois
"D c #000000", // Noir pour l'ouverture
"M c #A0522D", // Marron clair
"  c None",    // Transparent
/* pixels */
"BBBBBBBBBBBBBBBBBBBBBBBBBBBBBBBBBBBBBBBB",
"BBBBBBBBBBBBBBBBBBBBBBBBBBBBBBBBBBBBBBBB",
"BBMMMMMMMMMMMMMMMMMMMMMMMMMMMMMMMMMMMMBB",
"BBMMMMMMMMMMMMMMMMMMMMMMMMMMMMMMMMMMMMBB",
"BBMMDDDDDDDDDDDDDDDDDDDDDDDDDDDDDDMMMMBB",
"BBMMDDDDDDDDDDDDDDDDDDDDDDDDDDDDDDMMMMBB",
"BBMMDDDDDDDDDDDDDDDDDDDDDDDDDDDDDDDDDMBB",
"BBMMDDDDDDDDDDDDDDDDDDDDDDDDDDDDDDDDDMBB",
"BBMMDDDDDDDDDDDDDDDDDDDDDDDDDDDDDDDDDMBB",
"BBMMDDDDDDDDDDDDDDDDDDDDDDDDDDDDDDDDDMBB",
"BBMMDDDDDDDDDDDDDDDDDDDDDDDDDDDDDDDDDMBB",
"BBMMDDDDDDDDDDDDDDDDDDDDDDDDDDDDDDDDDMBB",
"BBMMDDDDDDDDDDDDDDDDDDDDDDDDDDDDDDDDDMBB",
"BBMMDDDDDDDDDDDDDDDDDDDDDDDDDDDDDDDDDMBB",
"BBMMDDDDDDDDDDDDDDDDDDDDDDDDDDDDDDDDDMBB",
"BBMMDDDDDDDDDDDDDDDDDDDDDDDDDDDDDDDDDMBB",
"BBMMDDDDDDDDDDDDDDDDDDDDDDDDDDDDDDDDDMBB",
"BBMMDDDDDDDDDDDDDDDDDDDDDDDDDDDDDDDDDMBB",
"BBMMDDDDDDDDDDDDDDDDDDDDDDDDDDDDDDDDDMBB",
"BBMMDDDDDDDDDDDDDDDDDDDDDDDDDDDDDDDDDMBB",
"BBMMDDDDDDDDDDDDDDDDDDDDDDDDDDDDDDDDDMBB",
"BBMMDDDDDDDDDDDDDDDDDDDDDDDDDDDDDDDDDMBB",
"BBMMDDDDDDDDDDDDDDDDDDDDDDDDDDDDDDDDDMBB",
"BBMMDDDDDDDDDDDDDDDDDDDDDDDDDDDDDDDDDMBB",
"BBMMDDDDDDDDDDDDDDDDDDDDDDDDDDDDDDDDDMBB",
"BBMMDDDDDDDDDDDDDDDDDDDDDDDDDDDDDDDDDMBB",
"BBMMDDDDDDDDDDDDDDDDDDDDDDDDDDDDDDDDDMBB",
"BBMMDDDDDDDDDDDDDDDDDDDDDDDDDDDDDDDDDMBB",
"BBMMDDDDDDDDDDDDDDDDDDDDDDDDDDDDDDDDDMBB",
"BBMMDDDDDDDDDDDDDDDDDDDDDDDDDDDDDDDDDMBB",
"BBMMDDDDDDDDDDDDDDDDDDDDDDDDDDDDDDDDDMBB",
"BBMMDDDDDDDDDDDDDDDDDDDDDDDDDDDDDDDDDMBB",
"BBMMDDDDDDDDDDDDDDDDDDDDDDDDDDDDDDDDDMBB",
"BBMMDDDDDDDDDDDDDDDDDDDDDDDDDDDDDDDDDMBB",
"BBMMDDDDDDDDDDDDDDDDDDDDDDDDDDDDDDDDDMBB",
"BBMMDDDDDDDDDDDDDDDDDDDDDDDDDDDDDDMMMMBB",
"BBMMMMMMMMMMMMMMMMMMMMMMMMMMMMMMMMMMMMBB",
"BBMMMMMMMMMMMMMMMMMMMMMMMMMMMMMMMMMMMMBB",
"BBBBBBBBBBBBBBBBBBBBBBBBBBBBBBBBBBBBBBBB",
"BBBBBBBBBBBBBBBBBBBBBBBBBBBBBBBBBBBBBBBB"
};